<?xml version="1.0" encoding="UTF-8"?> <svg xmlns="http://www.w3.org/2000/svg" xmlns:xlink="http://www.w3.org/1999/xlink" width="660px" height="120px" viewBox="0 0 660 120" version="1.1"><title>10 logo</title><desc>Created with Sketch.</desc><g id="10-logo" stroke="none" stroke-width="1" fill="none" fill-rule="evenodd"><path d="M609.777375,75.31275 C618.214875,75.31275 623.496125,81.87525 623.496125,92.562125 L623.496125,92.593375 C623.496125,103.218375 618.183625,109.780875 609.902375,109.780875 C605.183,109.780875 601.402375,107.405875 599.496125,103.530875 L599.339875,103.530875 L599.339875,120.062125 L591.558625,120.062125 L591.558625,75.999625 L599.339875,75.999625 L599.339875,81.719 L599.527375,81.719 C601.402375,77.749625 605.058625,75.31275 609.777375,75.31275 Z M238.405688,75.31275 C248.187563,75.31275 254.250063,81.780875 254.250063,92.530875 L254.250063,92.593375 C254.250063,103.374625 248.218813,109.780875 238.405688,109.780875 C229.468813,109.780875 223.656313,104.344 222.718813,95.12525 L217.780688,95.12525 L217.780688,109.124625 L210.000063,109.124625 L210.000063,75.999625 L217.780688,75.999625 L217.780688,89.0315 L222.843813,89.0315 C224.062563,80.43775 229.811938,75.31275 238.405688,75.31275 Z M570.966688,75.3125 C579.279188,75.3125 584.591688,79.6875 584.591688,86.343125 L584.591688,109.125 L576.810438,109.125 L576.810438,104.03125 L576.654188,104.03125 C574.716688,107.5 571.029188,109.6875 566.685438,109.6875 C560.029188,109.6875 555.560438,105.59375 555.560438,99.6875 L555.560438,99.624375 C555.560438,93.75 560.154188,90.21875 568.154188,89.71875 L576.810438,89.1875 L576.810438,86.90625 C576.810438,83.5625 574.622938,81.53125 570.716688,81.53125 C567.029188,81.53125 564.747938,83.25 564.247938,85.6875 L564.185438,85.96875 L556.966688,85.96875 L556.997938,85.59375 C557.497938,79.71875 562.560438,75.3125 570.966688,75.3125 Z M550.088062,75.99975 L550.088062,109.12475 L542.275562,109.12475 L542.275562,82.000375 L528.649937,82.000375 L528.649937,109.12475 L520.869312,109.12475 L520.869375,109.125 L503.27625,109.125 L503.27625,103.125 L520.869375,103.125 L520.869312,75.99975 L550.088062,75.99975 Z M636.949,75.999875 L636.949,89.374875 L638.105875,89.374875 L649.324,75.999875 L658.29275,75.999875 L644.949,91.468625 L658.949,109.124875 L649.48025,109.124875 L638.105875,94.718625 L636.949,94.718625 L636.949,109.124875 L629.16775,109.124875 L629.16775,75.999875 L636.949,75.999875 Z M503.275312,76 L503.275312,82.03125 L493.119062,82.03125 L493.119062,109.125 L485.337812,109.125 L485.337812,82.03125 L475.181562,82.03125 L475.181562,76 L503.275312,76 Z M384.09375,76 L384.09375,109.125 L376.3125,109.125 L376.3125,76 L384.09375,76 Z M353.5,76 L353.5,85.9375 L359.875,85.9375 C367.59375,85.9375 372.5625,90.4375 372.5625,97.5 L372.5625,97.5625 C372.5625,104.624375 367.59375,109.125 359.875,109.125 L345.71875,109.125 L345.71875,76 L353.5,76 Z M264.511875,75.99975 L275.355625,89.4685 L276.1675,89.4685 L276.1675,75.99975 L283.82375,75.99975 L283.82375,89.4685 L284.668125,89.4685 L295.480625,75.99975 L304.48,75.99975 L291.574375,91.49975 L305.07375,109.12475 L295.668125,109.12475 L284.668125,94.656625 L283.82375,94.656625 L283.82375,109.12475 L276.1675,109.12475 L276.1675,94.656625 L275.355625,94.656625 L264.355625,109.12475 L254.980625,109.12475 L268.449375,91.56225 L255.480625,75.99975 L264.511875,75.99975 Z M316.901875,75.999625 L316.901875,89.06275 L330.84,89.06275 L330.84,75.999625 L338.620625,75.999625 L338.620625,109.124625 L330.84,109.124625 L330.84,95.093375 L316.901875,95.093375 L316.901875,109.124625 L309.12125,109.124625 L309.12125,75.999625 L316.901875,75.999625 Z M448.507938,75.99975 L448.507938,98.094125 L448.820438,98.094125 L463.101063,75.99975 L470.726688,75.99975 L470.726688,109.12475 L463.039188,109.12475 L463.039188,86.87475 L462.726688,86.87475 L448.444813,109.12475 L440.820438,109.12475 L440.820438,75.99975 L448.507938,75.99975 Z M576.810438,94.34375 L569.247938,94.8125 C565.435438,95.0625 563.341688,96.71875 563.341688,99.34375 L563.341688,99.375 C563.341688,102.09375 565.560438,103.75 568.997938,103.75 C573.466688,103.75 576.810438,100.78125 576.810438,96.84375 L576.810438,94.34375 Z M238.405688,81.624625 C233.405688,81.624625 230.500063,85.62525 230.500063,92.530875 L230.500063,92.593375 C230.500063,99.50025 233.375063,103.499625 238.405688,103.499625 C243.405688,103.499625 246.281313,99.50025 246.281313,92.593375 L246.281313,92.530875 C246.281313,85.62525 243.375063,81.624625 238.405688,81.624625 Z M607.464875,81.87525 C602.652375,81.87525 599.308625,86.06275 599.308625,92.562125 L599.308625,92.593375 C599.308625,99.06275 602.683,103.218375 607.464875,103.218375 C612.464875,103.218375 615.558625,99.124625 615.558625,92.593375 L615.558625,92.562125 C615.558625,85.93775 612.433625,81.87525 607.464875,81.87525 Z M358.78125,91.9375 L353.5,91.9375 L353.5,103.125 L358.78125,103.125 C362.375,103.125 364.625,100.90625 364.625,97.5625 L364.625,97.5 C364.625,94.125 362.34375,91.9375 358.78125,91.9375 Z M398.851563,98.094125 L399.164063,98.094125 L413.444688,75.99975 L421.070313,75.99975 L421.070313,109.12475 L413.382813,109.12475 L413.382813,86.87475 L413.070313,86.87475 L398.789063,109.12475 L391.164063,109.12475 L391.164063,75.99975 L398.851563,75.99975 L398.851875,65.09375 L406.633125,65.09375 L406.633125,76 L398.851875,76 L398.851563,98.094125 Z M261.312688,9.311875 C270.812688,9.311875 276.687063,15.96875 276.687063,25.96875 L276.687063,28.46875 L253.500188,28.46875 C253.593938,34.28125 256.781438,37.71875 261.843313,37.71875 C265.749563,37.71875 268.249563,35.65625 268.999563,33.4375 L269.062688,33.218125 L276.343313,33.218125 L276.281438,33.5625 C275.218938,38.65625 270.343938,43.78125 261.687063,43.78125 C251.750188,43.78125 245.749563,37.1875 245.749563,26.655625 L245.749563,26.625 C245.749563,16.186875 251.843313,9.311875 261.312688,9.311875 Z M240.187813,10 L240.187813,43.125 L232.375313,43.125 L232.375313,16.030625 L221.968438,16.030625 L221.155938,28.061875 C220.530938,37.46875 218.218438,43.4375 210.437188,43.4375 C208.999688,43.4375 207.969063,43.218125 207.468438,43.061875 L207.468438,36.40625 C207.780938,36.499375 208.405938,36.625 209.250313,36.625 C212.593438,36.625 213.718438,33.5 214.094063,27.5 L215.187813,10 L240.187813,10 Z M307.478188,10.00025 L307.478188,16.030875 L297.321938,16.030875 L297.321938,43.12525 L289.541313,43.12525 L289.541313,16.030875 L279.385063,16.030875 L279.385063,10.00025 L307.478188,10.00025 Z M261.406438,15.405625 C257.312063,15.405625 254.187063,18.1875 253.593938,23.28125 L269.093938,23.28125 C268.530813,18.03125 265.531438,15.405625 261.406438,15.405625 Z" id="Combined-Shape" fill="#212121"></path><path d="M110.000188,9.79125 C82.3851875,9.79125 60.0001875,32.176875 60.0001875,59.79125 C60.0001875,87.405625 82.3851875,109.79125 110.000188,109.79125 C137.614563,109.79125 160.000188,87.405625 160.000188,59.79125 C160.000188,32.176875 137.614563,9.79125 110.000188,9.79125 M110.000188,29.79125 C126.542063,29.79125 140.000188,43.24875 140.000188,59.79125 C140.000188,76.33375 126.542063,89.79125 110.000188,89.79125 C93.4576875,89.79125 80.0001875,76.33375 80.0001875,59.79125 C80.0001875,43.24875 93.4576875,29.79125 110.000188,29.79125" id="Fill-22" fill="#E50043"></path><polygon id="Fill-23" fill="#8D46D4" points="20 109.79125 40 109.79125 40 69.79125 20 69.79125"></polygon><polygon id="Fill-24" fill="#FF715A" points="20 29.79125 40 29.79125 40 9.79125 20 9.79125"></polygon><polygon id="Fill-27" fill="#FFC027" points="0 49.79125 20 49.79125 20 29.79125 0 29.79125"></polygon><polygon id="Fill-28" fill="#00C4A7" points="20 69.79125 40 69.79125 40 49.79125 20 49.79125"></polygon></g></svg> 